<?xml version="1.0" standalone="no"?>
<!DOCTYPE svg PUBLIC "-//W3C//DTD SVG 20010904//EN"
 "http://www.w3.org/TR/2001/REC-SVG-20010904/DTD/svg10.dtd">
<svg version="1.0" xmlns="http://www.w3.org/2000/svg"
 width="700.000000pt" height="700.000000pt" viewBox="0 0 700.000000 700.000000"
 preserveAspectRatio="xMidYMid meet">
<metadata>
Created by potrace 1.14, written by Peter Selinger 2001-2017
</metadata>
<g transform="translate(0.000000,700.000000) scale(0.100000,-0.100000)"
fill="#000000" stroke="none">
<path d="M0 3500 l0 -3500 618 0 617 0 923 923 922 922 -800 800 -801 799 801
801 800 800 -978 978 -977 977 -563 0 -562 0 0 -3500z"/>
<path d="M2763 6243 l757 -758 757 758 758 757 -1515 0 -1515 0 758 -757z"/>
<path d="M4128 5222 l-1777 -1778 582 -582 582 -582 583 583 582 582 -557 557
-558 558 220 220 220 220 777 -777 778 -778 -1722 -1722 -1723 -1723 1405 0
1405 0 -678 678 -677 677 218 218 217 217 895 -895 895 -895 602 0 603 0 0
3500 0 3500 -547 0 -548 0 -1777 -1778z"/>
</g>
</svg>
