<svg viewBox="0 0 96 96" xmlns="http://www.w3.org/2000/svg"><path d="m0 0h96v96h-96z" fill="#e26f54"/><path d="m17.9381-9.55127 58.3074 58.30747-6.0174 6.0174-58.3075-58.30745z" fill="#fff"/><path d="m78.2274-7.79651 6.0174 6.01742-57.261 57.26099-6.0174-6.0175z" opacity=".36"/><path d="m77.5274-8.49652 6.0174 6.01742-57.2609 57.2609-6.0175-6.0174z" fill="#bdccd4"/><path d="m26.9799 43.455 55.8396 55.8397-6.0174 6.0173-55.8397-55.8396z" opacity=".36"/><path d="m26.2798 42.7549 55.8397 55.8397-6.0174 6.0174-55.8397-55.8396z" fill="#bdccd4"/><path d="m70.9379 43.4512 6.0174 6.0174-55.8397 55.8394-6.0174-6.0172z" opacity=".36"/><path d="m70.2379 42.7513 6.0174 6.0174-55.8397 55.8393-6.0174-6.0171z" fill="#fff"/></svg>