<svg fill="none" height="40" viewBox="0 0 116 40" width="116" xmlns="http://www.w3.org/2000/svg" xmlns:xlink="http://www.w3.org/1999/xlink"><linearGradient id="a" gradientUnits="userSpaceOnUse" x1="15.5252" x2="21.4442" y1="13.3057" y2="33.6437"><stop offset="0" stop-color="#ffe073"/><stop offset="1" stop-color="#ffa800"/></linearGradient><path d="m9.3742 30.3957v-10.414l-8.333 6.507 8.332 3.906z" fill="#fff"/><path d="m9.3742 19.9817-.641-.821c.1537-.1201.33805-.1946.53203-.215.19399-.0205.38982.014.56515.0995.17532.0855.32312.2185.42652.3839s.1583.3565.1583.5516h-1.041zm0 10.414h1.041c.0001.1753-.0441.3477-.1284.5014-.0844.1536-.2061.2835-.35402.3775-.1479.0941-.31715.1493-.49207.1605-.17491.0112-.34982-.022-.50851-.0964zm-8.333-3.907-.441999.943c-.161132-.0755-.300213-.1911-.403964-.3357-.1037513-.1445-.1687079-.3133-.18866772-.4901-.01995978-.1769.00574372-.3559.07465612-.5199.0689126-.1641.1787326-.3078.3189756-.4173zm9.373-6.508v10.414h-2.082v-10.413h2.083zm-1.482 11.358-8.331999-3.906.884999-1.886 8.33 3.906zm-8.529999-5.67 8.329999-6.508 1.283 1.641-8.331 6.51-1.282999-1.643z" fill="#121212"/><path d="m15.1322 6.1767c.79-.34 1.847-.208 2.996.559 1.139.76 2.245 2.078 2.985 3.8s.936 3.432.703 4.781c-.234 1.362-.865 2.218-1.656 2.558-.79.34-1.846.209-2.995-.558-1.14-.76-2.246-2.08-2.986-3.8-.74-1.722-.935-3.432-.703-4.782.234-1.361.866-2.218 1.656-2.558z" fill="#fff" stroke="#121212" stroke-width="2.083"/><path d="m6.22821 26.0197c1.13 4.962 6.89999 8.302 13.76199 6.89 6.911-1.423 11.09-6.859 9.968-11.782-1.119-4.912-7.262-8.214-14.154-6.816-7.88799 2.42-10.53599 7.494-9.57599 11.708z" fill="#ffc700"/><path d="m6.22821 26.0197c1.13 4.962 6.89999 8.302 13.76199 6.89 6.911-1.423 11.09-6.859 9.968-11.782-1.119-4.912-7.262-8.214-14.154-6.816-7.88799 2.42-10.53599 7.494-9.57599 11.708z" fill="url(#a)"/><path d="m6.22821 26.0197c1.13 4.962 6.89999 8.302 13.76199 6.89 6.911-1.423 11.09-6.859 9.968-11.782-1.119-4.912-7.262-8.214-14.154-6.816-7.88799 2.42-10.53599 7.494-9.57599 11.708z" stroke="#121212" stroke-width="2.083"/><path d="m19.6512 31.8487c.2763-.0296.5532.0496.772.2208s.3623.4209.4.6962c.0186.1347.0099.2717-.0255.4029-.0354.1313-.0968.2541-.1805.3612-.0838.107-.1882.1962-.307.2621-.1189.066-.2498.1074-.385.1218zm-2.41-18.107c.2763-.0296.5532.0496.772.2208s.3623.4209.4.6962c.0186.1347.0099.2717-.0255.4029-.0354.1313-.0968.2541-.1805.3612-.0838.107-.1882.1962-.307.2621-.1189.066-.2498.1074-.385.1218zm-5.79 10.81c.305 2.295 1.285 4.25 2.702 5.555 1.4 1.29 3.272 1.99 5.498 1.742l.274 2.065c-2.838.317-5.321-.59-7.174-2.296-1.837-1.693-3.01-4.129-3.37-6.834zm6.064-8.745c-2.238.25-3.874 1.316-4.895 2.84-1.031 1.54-1.475 3.612-1.17 5.905l-2.07.232c-.36-2.707.146-5.298 1.496-7.314 1.36-2.031 3.539-3.412 6.365-3.728z" fill="#121212"/><path d="m24.0962 30.2777c.2617-.093.5494-.0802.8018.0356.2525.1158.4499.3254.5502.5844.0498.1264.0738.2615.0704.3973-.0033.1359-.0338.2697-.0898.3935-.0559.1238-.1361.2351-.2359.3274-.0997.0923-.2169.1636-.3447.2098zm-3.832-17.219c.2724-.0548.5554-.0013.789.1492s.3993.3861.462.6568c.128.56-.225 1.109-.788 1.225zm-3.965 11.112c.341 1.497 1.03 3.568 2.279 4.979.608.687 1.324 1.189 2.178 1.42.851.229 1.94.216 3.34-.292l.752 1.948c-1.723.626-3.257.707-4.605.344-1.345-.363-2.405-1.142-3.226-2.07-1.611-1.82-2.395-4.318-2.758-5.91l2.04-.42zm4.428-9.081c-3.243.667-5.456 4.567-4.428 9.08l-2.04.42c-1.19-5.228 1.267-10.556 6.005-11.531l.463 2.03z" fill="#121212"/><path d="m5.76219 9.9337c-.497.703-.588 1.763-.077 3.046.506 1.273 1.566 2.63 3.096 3.711 1.53001 1.082 3.16201 1.63 4.53001 1.683 1.38.054 2.35-.385 2.846-1.088.497-.702.588-1.762.078-3.046-.507-1.272-1.566-2.628-3.096-3.71-1.53-1.083-3.16201-1.63-4.53001-1.683-1.38-.054-2.35.385-2.847 1.087z" fill="#fff" stroke="#121212" stroke-width="2.083"/><path d="m23.3582 21.8146c-.5619.1217-1.116-.2352-1.2377-.7971s.2352-1.116.7971-1.2377 1.1161.2352 1.2377.7971c.1217.5619-.2352 1.1161-.7971 1.2377z" fill="#121212" stroke="#121212" stroke-width="1.041"/><path clip-rule="evenodd" d="m78.434 17.331h-3.108v-3.33l-2.55.422v9.548c0 .73.063 1.384.19 1.96.126.562.344 1.047.653 1.454.309.394.723.696 1.243.907.534.21 1.195.316 1.981.316.604 0 1.135-.062 1.591-.184v-2.164l-.031.008c-.3987.1045-.8098.1542-1.222.148-.675 0-1.153-.19-1.434-.57-.28-.379-.421-1.01-.421-1.896v-4.49h3.108v-2.128zm-35.776 9.043c.955 0 1.65-.162 2.087-.485.435-.323.653-.78.653-1.37 0-.351-.078-.653-.232-.906-.1563-.2703-.3725-.5012-.632-.675-.267-.21-.597-.4-.99-.569-.4398-.2008-.8905-.3767-1.35-.527-.506-.182-.997-.38-1.475-.59-.4503-.2158-.8689-.4924-1.244-.822-.3565-.3302-.6493-.7231-.864-1.159-.21-.45-.316-.99-.316-1.623 0-1.32.457-2.353 1.37-3.098.913-.759 2.157-1.138 3.73-1.138.914 0 1.722.105 2.424.316.717.197 1.279.414 1.687.653l-.822 2.15c-.4969-.2743-1.0288-.4798-1.581-.611-.5725-.1415-1.1603-.2121-1.75-.21-.716 0-1.278.147-1.686.442-.393.295-.59.71-.59 1.243 0 .323.063.604.19.843.14.225.33.429.569.611.2723.1941.5615.3635.864.506.337.155.703.302 1.096.443.689.253 1.3.513 1.834.78.5079.2255.9718.5394 1.37.927.379.351.667.773.864 1.265.197.477.295 1.06.295 1.749 0 1.32-.47 2.346-1.412 3.077-.928.717-2.29 1.075-4.09 1.075-.603 0-1.158-.042-1.664-.127-.4483-.0608-.892-.152-1.328-.273-.38-.113-.71-.225-.99-.338-.2306-.1008-.4559-.2133-.675-.337l.78-2.17c.38.21.892.42 1.538.631.647.211 1.427.317 2.34.317zm14.501-3.478c0-1.138-.26-2.023-.78-2.655-.505-.633-1.327-.949-2.466-.949-.238 0-.491.014-.758.042-.2568.0148-.5113.0574-.759.127v6.301c.225.155.52.303.885.443.38.127.78.19 1.202.19.927 0 1.601-.316 2.023-.949.435-.632.653-1.482.653-2.55zm2.614-.042c0 .843-.113 1.616-.337 2.318-.211.703-.52 1.307-.928 1.813-.407.506-.92.9-1.538 1.18-.605.281-1.293.422-2.066.422-.52 0-.998-.063-1.433-.19-.3725-.1015-.7329-.243-1.075-.422v4.279h-2.55v-14.564c.52-.14 1.159-.274 1.918-.4.758-.127 1.56-.19 2.402-.19.872 0 1.651.134 2.34.4.6632.2501 1.2614.6466 1.75 1.16.504.512.8855 1.1315 1.116 1.812.267.703.4 1.497.4 2.382zm10.403 5.5h-2.55v-11.021h2.55v11.023zm.274-14.247c0 .478-.155.857-.464 1.138-.31.281-.675.422-1.096.422-.436 0-.808-.14-1.117-.422-.31-.28-.464-.66-.464-1.138 0-.492.155-.878.464-1.159s.681-.421 1.117-.421c.421 0 .787.14 1.096.421s.464.668.464 1.16zm-7.817 13.552c.295.281.688.5 1.18.654.175.053.364.098.57.135v-16.448l-2.551.421v12.688c0 .548.056 1.04.168 1.475.127.422.338.78.633 1.075zm25.305-4.848c0-1.081-.218-1.938-.653-2.57-.422-.633-1.097-.949-2.024-.949-.421 0-.822.063-1.201.19-.365.126-.66.267-.885.421v6.344c.182.042.414.085.695.127.295.028.647.042 1.054.042.941 0 1.679-.316 2.213-.949.534-.646.8-1.531.8-2.655zm2.613.043c0 .885-.133 1.686-.4 2.403-.2375.6774-.6186 1.2955-1.117 1.812-.4886.5134-1.0868.9099-1.75 1.16-.688.266-1.468.4-2.339.4-.843 0-1.65-.063-2.424-.19-.6407-.0997-1.2743-.2403-1.897-.421v-15.597l2.55-.421v5.711c.3446-.1736.7049-.3142 1.076-.42.435-.127.913-.19 1.433-.19.773 0 1.461.14 2.065.422.6007.2536 1.1294.6517 1.539 1.159.407.506.716 1.117.927 1.834.225.702.337 1.482.337 2.339zm1.912-2.508c-.281.73-.421 1.58-.421 2.55 0 .83.112 1.595.337 2.297.225.689.569 1.293 1.032 1.813.464.506 1.054.906 1.77 1.201.718.281 1.56.422 2.53.422.716.0013 1.43-.0765 2.129-.232.284-.0475.566-.1109.843-.19.253-.084.449-.161.59-.232l-.337-2.086c-.295.126-.703.246-1.223.358-.5542.1175-1.1195.1741-1.686.169-1.054 0-1.862-.239-2.424-.717-.548-.492-.857-1.18-.927-2.065h7.271c.014-.14.021-.295.021-.464.015-.183.022-.344.022-.485 0-1.868-.429-3.273-1.286-4.215-.843-.941-2.023-1.412-3.54-1.412-.647 0-1.28.126-1.898.38-.6213.2407-1.1824.6144-1.644 1.095-.478.478-.864 1.082-1.159 1.813zm6.829.421c.098.31.147.64.147.991h-4.742c.042-.323.12-.64.232-.948.1065-.2985.2634-.5766.464-.822.21-.24.463-.429.758-.57.296-.154.64-.231 1.033-.231.38 0 .703.07.97.21.281.127.513.31.695.548.197.225.344.5.443.822zm4.263 2.13c0-.97.141-1.82.422-2.551.295-.73.681-1.335 1.159-1.813.462-.4808 1.023-.8549 1.644-1.096.601-.2498 1.246-.3789 1.897-.38 1.517 0 2.698.472 3.541 1.413.857.942 1.285 2.347 1.285 4.215 0 .14-.007.302-.021.485 0 .169-.007.323-.021.464h-7.271c.07.885.379 1.573.927 2.065.562.478 1.37.717 2.424.717.566.0051 1.132-.0515 1.686-.169.52-.112.927-.232 1.222-.358l.338 2.087c-.141.07-.338.147-.59.231-.277.0791-.559.1425-.843.19-.699.1555-1.413.2333-2.129.232-.97 0-1.813-.14-2.529-.422-.717-.295-1.307-.695-1.771-1.201-.467-.5257-.818-1.1433-1.032-1.813-.231-.7435-.345-1.5184-.338-2.297zm7.398-1.139c.002-.3356-.047-.6695-.147-.99-.087-.3028-.238-.5834-.443-.823-.182-.2383-.422-.4268-.696-.548-.267-.14-.59-.21-.969-.21-.394 0-.738.077-1.033.232-.295.14-.548.33-.759.569-.2.2456-.357.5236-.463.822-.113.309-.19.625-.232.948z" fill="#fff" fill-rule="evenodd"/></svg>