<svg fill="none" height="40" viewBox="0 0 124 40" width="124" xmlns="http://www.w3.org/2000/svg"><g fill="#ecedee"><g clip-rule="evenodd" fill-rule="evenodd"><path d="m16 6.06452c-7.69636 0-13.93548 6.23908-13.93548 13.93548s6.23912 13.9355 13.93548 13.9355c7.6964 0 13.9355-6.2391 13.9355-13.9355s-6.2391-13.93548-13.9355-13.93548zm-16 13.93548c0-8.8366 7.16344-16 16-16 8.8366 0 16 7.1634 16 16s-7.1634 16-16 16c-8.83656 0-16-7.1634-16-16z"/><path d="m31.0925 23.3598-19.6671 11.3549-.5161-.894 19.6671-11.3548z"/><path d="m21.2861 6.37467-19.66715 11.35483-.51613-.894 19.66718-11.35479z"/><path d="m25.1941 21.4015c.1425.2468.058.5625-.1889.705l-17.8792 10.3226c-.24686.1425-.56252.0579-.70505-.1889-.14252-.2469-.05794-.5625.18892-.7051l17.87923-10.3226c.2468-.1425.5625-.0579.705.189z"/><path d="m25.7748 7.95517c.1425.24686.0579.56252-.1889.70505l-17.87926 10.32258c-.24686.1425-.56252.0579-.70504-.189-.14253-.2468-.05794-.5625.18892-.705l17.87918-10.32254c.2469-.14253.5625-.05795.7051.18891z"/><path d="m11.1812 16.3168c.1697-.229.493-.277.722-.1072l9.5757 7.0999c.229.1697.277.493.1072.722-.1698.2289-.493.2769-.722.1072l-9.5757-7.0999c-.229-.1698-.277-.493-.1072-.722z"/><path d="m14.7568 14.2528c.1698-.2289.493-.2769.722-.1072l9.5755 7.0995c.229.1698.277.493.1072.722-.1697.229-.493.277-.722.1072l-9.5755-7.0995c-.229-.1697-.277-.493-.1072-.722z"/><path d="m7.0287 18.2356c.16576-.2319.48813-.2855.72003-.1197l10.14717 7.2529c.2319.1658.2855.4881.1198.72-.1658.2319-.4882.2856-.7201.1198l-10.14713-7.2529c-.2319-.1658-.28552-.4882-.11977-.7201z"/></g><path d="m46.4375 16.1307c-.0909-.8068-.4659-1.4318-1.125-1.875-.6591-.4489-1.4886-.6733-2.4886-.6733-.7159 0-1.3353.1137-1.858.3409-.5227.2216-.929.5284-1.2187.9205-.2841.3863-.4262.8267-.4262 1.321 0 .4148.0966.7727.2898 1.0739.1989.3011.4574.5539.7756.7585.3238.1989.6704.3665 1.0397.5028.3694.1307.7245.2387 1.0654.3239l1.7045.4432c.5568.1363 1.1279.321 1.7131.554.5852.2329 1.1278.5397 1.6278.9204s.9034.8523 1.2103 1.4148c.3125.5625.4687 1.2358.4687 2.0199 0 .9886-.2557 1.8664-.767 2.6335-.5057.767-1.2415 1.3721-2.2074 1.8153-.9603.4432-2.1222.6648-3.4858.6648-1.3068 0-2.4375-.2074-3.3921-.6222-.9545-.4147-1.7017-1.0028-2.2414-1.7642-.5398-.767-.8381-1.6761-.8949-2.7272h2.642c.0512.6306.2557 1.1562.6137 1.5767.3636.4147.8267.7244 1.3892.9289.5681.1989 1.1903.2983 1.8664.2983.7444 0 1.4063-.1164 1.9858-.3494.5853-.2386 1.0455-.5682 1.3807-.9886.3352-.4262.5029-.9233.5029-1.4915 0-.517-.1478-.9403-.4432-1.2699-.2898-.3295-.6847-.6023-1.1847-.8182-.4943-.2159-1.054-.4062-1.679-.571l-2.0625-.5625c-1.3977-.3807-2.5056-.9403-3.3238-1.679-.8125-.7386-1.2188-1.7159-1.2188-2.9318 0-1.0057.2727-1.8835.8182-2.6335s1.2841-1.3324 2.2159-1.7472c.9318-.4204 1.983-.6307 3.1534-.6307 1.1818 0 2.2245.2074 3.1279.6222.9091.4148 1.625.9858 2.1477 1.7131.5227.7216.7954 1.5511.8182 2.4886z"/><path d="m57.0692 15.9091v2.0455h-7.1506v-2.0455zm-5.233-3.1363h2.5483v12.3835c0 .4943.0739.8665.2216 1.1165.1477.2443.3381.4119.571.5028.2387.0852.4972.1278.7756.1278.2045 0 .3835-.0142.5369-.0426s.2728-.0511.358-.0682l.4602 2.1052c-.1477.0568-.3579.1136-.6307.1704-.2727.0625-.6136.0966-1.0227.1023-.6705.0113-1.2955-.108-1.875-.358s-1.0483-.6363-1.4062-1.1591c-.358-.5227-.537-1.1789-.537-1.9687z"/><path d="m58.6881 29v-13.0909h2.5483v13.0909zm1.2869-15.1108c-.4432 0-.8239-.1477-1.142-.4432-.3125-.3011-.4688-.659-.4688-1.0738 0-.4205.1563-.7784.4688-1.0739.3181-.3011.6988-.4517 1.142-.4517s.821.1506 1.1335.4517c.3182.2955.4773.6534.4773 1.0739 0 .4148-.1591.7727-.4773 1.0738-.3125.2955-.6903.4432-1.1335.4432z"/><path d="m69.5754 15.9091v2.0455h-7.1505v-2.0455zm-5.2329-3.1363h2.5483v12.3835c0 .4943.0738.8665.2216 1.1165.1477.2443.338.4119.571.5028.2386.0852.4971.1278.7756.1278.2045 0 .3835-.0142.5369-.0426s.2727-.0511.3579-.0682l.4603 2.1052c-.1478.0568-.358.1136-.6307.1704-.2727.0625-.6137.0966-1.0227.1023-.6705.0113-1.2955-.108-1.875-.358-.5796-.25-1.0483-.6363-1.4063-1.1591-.358-.5227-.5369-1.1789-.5369-1.9687z"/><path d="m76.5679 29.2642c-1.267 0-2.358-.2869-3.2727-.8608-.9091-.5795-1.608-1.3778-2.0966-2.3948-.4887-1.0171-.733-2.1819-.733-3.4944 0-1.3295.25-2.5028.75-3.5199.5-1.0227 1.2046-1.821 2.1137-2.3948.9091-.5739 1.9801-.8608 3.213-.8608.9943 0 1.8807.1846 2.6591.5539.7784.3637 1.4063.875 1.8835 1.5341.483.6591.7699 1.429.8608 2.3097h-2.4801c-.1363-.6136-.4488-1.1421-.9375-1.5852-.4829-.4432-1.1307-.6648-1.9432-.6648-.7102 0-1.3323.1875-1.8664.5625-.5284.3693-.9404.8977-1.2358 1.5852-.2955.6818-.4432 1.4887-.4432 2.4205 0 .9545.1449 1.7784.4346 2.4716.2898.6931.6989 1.2301 1.2273 1.6108.5341.3806 1.162.571 1.8835.571.483 0 .9205-.0881 1.3125-.2642.3978-.1818.7302-.4404.9972-.7756.2727-.3352.4631-.7386.571-1.2102h2.4801c-.0909.8466-.3664 1.6023-.8267 2.267-.4602.6648-1.0767 1.1875-1.8494 1.5682-.767.3807-1.6676.571-2.7017.571z"/><path d="m86.0192 21.2273v7.7727h-2.5483v-17.4545h2.5142v6.4943h.1619c.3068-.7045.7756-1.2642 1.4063-1.679.6307-.4147 1.4545-.6221 2.4716-.6221.8977 0 1.6818.1846 2.3522.5539.6762.3694 1.1989.9205 1.5682 1.6535.375.7272.5625 1.6363.5625 2.7272v8.3267h-2.5483v-8.0199c0-.9602-.2471-1.7045-.7415-2.2329-.4943-.5341-1.1818-.8011-2.0625-.8011-.6022 0-1.142.1278-1.6193.3835-.4716.2557-.8437.6307-1.1165 1.125-.267.4886-.4005 1.0795-.4005 1.7727z"/><path d="m102.35 29.2642c-1.289 0-2.4001-.2755-3.332-.8267-.9261-.5568-1.642-1.338-2.1477-2.3437-.5-1.0114-.75-2.196-.75-3.554 0-1.3409.25-2.5227.75-3.5455.5057-1.0227 1.2102-1.821 2.1136-2.3948.9091-.5739 1.9721-.8608 3.1871-.8608.739 0 1.455.1221 2.148.3664.693.2444 1.316.6279 1.867 1.1506s.985 1.2017 1.304 2.0369c.318.8296.477 1.8381.477 3.0256v.9034h-10.4063v-1.9091h7.9093c0-.6704-.137-1.2642-.409-1.7812-.273-.5227-.657-.9347-1.151-1.2358-.489-.3012-1.062-.4517-1.722-.4517-.715 0-1.34.1761-1.875.5284-.5279.3466-.937.8011-1.2268 1.3636-.2841.5568-.4261 1.162-.4261 1.8154v1.4914c0 .875.1534 1.6194.4602 2.233.3125.6136.7472 1.0824 1.3037 1.4062.557.3182 1.208.4773 1.952.4773.483 0 .923-.0682 1.321-.2045.398-.1421.741-.3523 1.031-.6307s.512-.6222.665-1.0313l2.412.4347c-.193.7102-.54 1.3324-1.04 1.8665-.494.5284-1.116.9403-1.866 1.2358-.745.2897-1.594.4346-2.549.4346z"/><path d="m119.404 19.1051-2.31.4091c-.096-.2954-.25-.5767-.46-.8437-.204-.2671-.483-.4858-.835-.6563-.352-.1704-.793-.2556-1.321-.2556-.722 0-1.324.1619-1.807.4857-.483.3182-.724.7302-.724 1.2358 0 .4375.162.7898.485 1.0569.324.267.847.4858 1.569.6562l2.079.4773c1.205.2784 2.102.7074 2.693 1.2869.591.5796.887 1.3324.887 2.2585 0 .7841-.228 1.483-.682 2.0966-.449.608-1.077 1.0853-1.884 1.4318-.801.3466-1.73.5199-2.787.5199-1.466 0-2.662-.3125-3.588-.9375-.926-.6306-1.494-1.5255-1.704-2.6846l2.463-.375c.153.642.469 1.1278.946 1.4574.477.3238 1.099.4858 1.866.4858.836 0 1.503-.1733 2.003-.5199.5-.3523.75-.7813.75-1.287 0-.4091-.153-.7528-.46-1.0312-.301-.2784-.764-.4886-1.389-.6307l-2.216-.4858c-1.222-.2784-2.125-.7216-2.71-1.3295-.58-.608-.87-1.3779-.87-2.3097 0-.7727.216-1.4489.648-2.0284s1.028-1.0313 1.79-1.3551c.761-.3296 1.633-.4943 2.616-.4943 1.415 0 2.529.3068 3.341.9204.813.608 1.35 1.4233 1.611 2.446z"/></g></svg>