<svg fill="none" height="40" viewBox="0 0 124 40" width="124" xmlns="http://www.w3.org/2000/svg"><g fill="#009688"><path d="m31.6666 13.9347c-.4442-.4442-.6666-.9889-.6666-1.634 0-.6447.2224-1.1894.6666-1.6341.4443-.4442.989-.6666 1.6341-.6666.6446 0 1.1893.2224 1.634.6666.4443.4443.6666.9894.6666 1.6341 0 .6451-.2223 1.1893-.6666 1.634-.4442.4443-.9894.6667-1.634.6667-.6451.0004-1.1898-.222-1.6341-.6667zm3.5945 15.8555h-3.9213v-14.0645h3.9213z"/><path d="m37.9275 11.5166h7.3983v18.2736h-3.9218v-14.7966h-3.477v-3.477z"/><path d="m51.5084 12.5365c1.2113-.9585 2.723-1.4382 4.5359-1.4382 1.8125 0 3.3201.4797 4.5224 1.4377 1.2028.9589 1.804 2.1398 1.804 3.5425 0 1.4032-.5402 2.61-1.6206 3.6209 1.5162 1.1678 2.2742 2.7019 2.2742 4.6014 0 1.6035-.6451 2.9538-1.9344 4.0521-1.2902 1.0979-2.9718 1.6471-5.0456 1.6471-2.0743 0-3.7559-.5492-5.0456-1.6471-1.2898-1.0978-1.9344-2.4486-1.9344-4.0521 0-1.8995.758-3.4336 2.2742-4.6014-1.0979-1.0279-1.6471-2.2392-1.6471-3.6339.0005-1.3942.6057-2.5706 1.817-3.529zm2.549 13.4499c.6097.4097 1.2719.6146 1.9869.6146.7146 0 1.3767-.2049 1.9869-.6146.6097-.4093.9149-1.0065.9149-1.7905 0-.7841-.2967-1.3857-.8889-1.804-.5927-.4183-1.2638-.6276-2.0129-.6276-.7496 0-1.4207.2093-2.0129.6276-.5926.4183-.8889 1.0194-.8889 1.804 0 .7845.3048 1.3812.9149 1.7905zm.2484-7.9865c.4967.4183 1.0759.6272 1.7385.6272.6621 0 1.2418-.2094 1.7385-.6272.4967-.4183.7451-.9365.7451-1.5556 0-.6182-.2443-1.1373-.7321-1.5556-.4882-.4183-1.0719-.6276-1.7515-.6276s-1.2638.2093-1.7515.6276c-.4882.4183-.7321.937-.7321 1.5556 0 .6191.2484 1.1373.7451 1.5556z"/><path d="m70.2134 21.9477v7.8425h-3.9213v-14.0645h3.9213v1.5686c1.1849-1.2028 2.5181-1.8039 3.9997-1.8039 1.4812 0 2.723.5227 3.7254 1.5686 1.0019 1.0458 1.5031 2.4401 1.5031 4.183v8.5487h-3.9212v-7.9475c0-2.1608-.7931-3.2416-2.3792-3.2416-.784 0-1.4686.2833-2.0523.8495-.5837.5666-.8755 1.3987-.8755 2.4966z"/><path d="m95.179 27.7513c-1.5861 1.4992-3.4465 2.2483-5.5813 2.2483-2.1353 0-3.8998-.6577-5.294-1.9739-1.3946-1.3158-2.0913-3.0803-2.0913-5.2935 0-2.2133.7097-3.9738 2.1308-5.281 1.4202-1.3072 3.0977-1.9604 5.0326-1.9604 1.9344 0 3.577.5841 4.9277 1.7515 1.3503 1.1678 2.0259 2.7709 2.0259 4.8102v2.0914h-10.2477c.1219.767.5227 1.3946 1.2028 1.8824.6796.4882 1.4466.7321 2.3006.7321 1.3768 0 2.5096-.4618 3.3986-1.3857zm-3.7644-8.3397c-.5406-.4532-1.1987-.6796-1.9738-.6796-.7756 0-1.4861.2353-2.1308.7061-.6451.4707-1.0194 1.1068-1.1243 1.9084h6.1695c-.087-.8366-.4003-1.4812-.9406-1.9349z"/><path d="m102.185 15.7256 2.405 3.7644 2.484-3.7644h4.601l-4.836 6.8752 5.019 7.1894h-4.68l-2.745-3.8693-2.666 3.8693h-4.5226l4.9146-7.163-4.6532-6.9016z"/><path d="m118.733 18.5491v6.3004c0 .5402.14.9634.418 1.2678.279.3053.61.4577.994.4577.732 0 1.35-.3309 1.856-.9934l1.464 2.7449c-1.22 1.1154-2.506 1.6731-3.856 1.6731-1.351 0-2.493-.4443-3.425-1.3333s-1.399-2.1003-1.399-3.6339v-6.4833h-1.647v-2.8234h1.647v-4.2091h3.948v4.2091h3.398v2.8234z"/><path d="m14.9482 7.31598v6.02242l6.7676 17.382s2.0661 4.2452-3.8432 5.2796h-13.48079s-5.50779-.5747-4.187374-4.9358l7.112094-17.7255v-6.02272z"/></g><path d="m15.0911 6.61578h-8.1185c-.65754 0-1.19239-.58495-1.19239-1.30766 0-.72318.53462-1.30812 1.19239-1.30812h8.1185c.6605 0 1.1944.58494 1.1944 1.30812 0 .72271-.5341 1.30766-1.1944 1.30766z" fill="#004d40"/><path d="m12.9494 17.1494c.8711 0 1.5815.8512 1.5815 1.9054 0 1.0495-.7108 1.9028-1.5815 1.9028-.8733 0-1.5816-.8533-1.5816-1.9028 0-1.0546.7083-1.9054 1.5816-1.9054z" fill="#fff"/><path d="m8.09428 22.0922c.73629 0 1.33317-.7194 1.33317-1.6069 0-.8874-.59688-1.6068-1.33317-1.6068s-1.33317.7194-1.33317 1.6068c0 .8875.59688 1.6069 1.33317 1.6069z" fill="#fff"/><path d="m15.5499 12.9393v-2.8644s3.6324-.80091 5.4477 3.424c0-.0002-2.8291 2.0613-5.4477-.5596z" fill="#004d40"/><path d="m6.65334 12.9393v-2.8644s-3.63282-.80091-5.44725 3.424c0-.0002 2.82637 2.0613 5.44725-.5596z" fill="#004d40"/><path d="m17.734 24.793c-5.9067-1.8323-10.8727-.8486-13.29991-.105l-2.44762 5.8914c-1.10193 3.5171 3.49922 3.9793 3.49922 3.9793h11.25931c4.9354-.8338 3.2105-4.2553 3.2105-4.2553z" fill="#fff"/><path d="m9.22137 26.9821c0 .6352-.85376 1.152-1.90536 1.152s-1.9028-.517-1.9028-1.152c0-.6379.8512-1.1528 1.9028-1.1528 1.05206.0005 1.90536.5149 1.90536 1.1528z" fill="#004d40"/><path d="m15.9973 26.9821c0 .6352-.8537 1.152-1.9028 1.152-1.0546 0-1.9053-.517-1.9053-1.152 0-.6379.8507-1.1528 1.9053-1.1528 1.0495.0005 1.9028.5149 1.9028 1.1528z" fill="#004d40"/></svg>